<?xml version="1.0" encoding="utf-8"?>
<!-- Generator: Adobe Illustrator 18.0.0, SVG Export Plug-In . SVG Version: 6.00 Build 0)  -->
<!DOCTYPE svg PUBLIC "-//W3C//DTD SVG 1.1//EN" "http://www.w3.org/Graphics/SVG/1.1/DTD/svg11.dtd">
<svg version="1.1" id="Layer_1" xmlns="http://www.w3.org/2000/svg" xmlns:xlink="http://www.w3.org/1999/xlink" x="0px" y="0px"
	 viewBox="0 0 640 480" enable-background="new 0 0 640 480" xml:space="preserve">
<g>
	<g>
		<path fill="#FFFFFF" stroke="#FFFFFF" stroke-width="3.600000e-02" stroke-miterlimit="10" d="M53.3,18.6
			c-1.3-3.5-3.1-6.1-5.4-7.8c-2.4-1.7-5.7-3.2-8.5-2.4c-2.9,0.8-6,4.7-8.7,6.5c-3,1.6-5.5,2.8-8.2,3.3c-2.7,0.3-5-0.1-7.4-1.3L0,0
			c4.2,3.8,7.7,6.3,11.1,7.6c3.3,1.1,5.1,0.9,8.5,0C23,6.4,27.4,3.3,31,2c3.4-1.3,6.7-2.2,9.4-1.8c2.6,0.3,4.6,1.5,6.7,3.5
			c2.1,1.8,4.2,4.3,6.1,7.6C53.3,13.7,53.3,16.1,53.3,18.6z"/>
		<path fill="#FFFFFF" stroke="#FFFFFF" stroke-width="3.600000e-02" stroke-miterlimit="10" d="M106.7,0c-4.2,3.8-7.7,6.3-11.1,7.6
			c-3.4,1.1-5.2,0.9-8.5,0c-3.4-1.1-7.9-4.2-11.4-5.5c-3.6-1.3-6.8-2.2-9.4-1.9c-2.7,0.3-4.7,1.5-6.7,3.5c-2.3,1.8-4.2,4.3-6.2,7.6"
			/>
		<path fill="#FFFFFF" stroke="#FFFFFF" stroke-width="3.600000e-02" stroke-miterlimit="10" d="M16.5,60.1
			c-3.1-1.4-5.4-3.6-6.9-6.1c-1.5-2.7-2.9-6.4-2.1-9.6c0.7-3.2,4.2-6.8,5.8-9.8c1.5-3.2,2.5-6.2,2.9-9.2c0.3-3-0.1-5.8-1.1-8.4L0,0
			c3.4,4.7,5.6,8.6,6.7,12.5c1,3.7,0.8,5.7,0,9.6c-1,3.8-3.8,8.7-4.9,12.8c-1.2,3.9-1.9,7.6-1.6,10.6c0.3,2.9,1.3,5.2,3.1,7.6
			c1.6,2.5,3.8,4.6,6.7,6.9C12.1,60.1,14.3,60.1,16.5,60.1z"/>
		<path fill="#FFFFFF" stroke="#FFFFFF" stroke-width="3.600000e-02" stroke-miterlimit="10" d="M53.3,18.6c0.8-3.4,2.5-6.1,5.4-7.8
			C61.6,9,66.5,7.1,70.6,8c4,0.9,8.2,6.1,12,8c3.6,1.6,5.3,3.4,9.4,1.6c4-1.9,8.9-6.1,14.7-12.6V0c-4.2,3.8-7.7,6.3-11.1,7.6
			c-3.4,1.1-5.2,0.9-8.5,0C83.7,6.4,79.2,3.3,75.7,2c-3.6-1.3-6.8-2.2-9.4-1.8c-2.7,0.3-4.7,1.5-6.7,3.5c-2.3,1.8-4.2,4.3-6.2,7.6
			C53.3,13.7,53.3,16.1,53.3,18.6z"/>
		<path fill="#FFFFFF" stroke="#FFFFFF" stroke-width="3.600000e-02" stroke-miterlimit="10" d="M160,18.6c-0.8-3.4-2.6-6.1-5.4-7.8
			c-2.9-1.8-7.9-3.7-11.8-2.8c-4.2,0.9-8.3,6.1-12,8c-3.7,1.6-5.4,3.4-9.4,1.6c-4.2-1.9-8.8-6.1-14.7-12.6V0c4,3.8,7.8,6.3,11,7.6
			c3.3,1.1,5.1,0.9,8.5,0c3.4-1.2,7.8-4.2,11.5-5.6c3.3-1.3,6.7-2.2,9.4-1.8c2.7,0.3,4.5,1.5,6.7,3.5c2.2,1.8,4.1,4.3,6.2,7.6
			C160,13.7,160,16.1,160,18.6z"/>
		<path fill="#FFFFFF" stroke="#FFFFFF" stroke-width="3.600000e-02" stroke-miterlimit="10" d="M266.7,18.6
			c-0.8-3.4-2.6-6.1-5.4-7.8c-2.9-1.8-7.9-3.7-11.8-2.8c-4.2,0.9-8.3,6.1-12,8c-3.7,1.6-5.4,3.4-9.4,1.6c-4.2-1.9-8.8-6.1-14.7-12.6
			V0c4.1,3.8,7.8,6.3,11.1,7.6c3.1,1.1,5.2,0.9,8.5,0c3.3-1.2,7.9-4.2,11.5-5.6c3.4-1.3,6.7-2.2,9.4-1.8c2.5,0.3,4.5,1.5,6.7,3.5
			c2.1,1.8,4.2,4.3,6.2,7.6C266.7,13.7,266.7,16.1,266.7,18.6z"/>
		<path fill="#FFFFFF" stroke="#FFFFFF" stroke-width="3.600000e-02" stroke-miterlimit="10" d="M160,18.6c0.8-3.4,2.4-6.1,5.4-7.8
			c2.8-1.8,7.8-3.7,11.8-2.8c4,0.9,8.2,6.1,12,8c3.6,1.6,5.3,3.4,9.4,1.6c4-1.9,8.9-6.1,14.7-12.6V0c-4.2,3.8-7.7,6.3-11.1,7.6
			c-3.4,1.1-5.2,0.9-8.5,0c-3.4-1.2-7.9-4.2-11.4-5.6c-3.6-1.3-6.8-2.2-9.4-1.8c-2.7,0.3-4.7,1.5-6.7,3.5c-2.1,1.8-4.2,4.3-6.1,7.6
			C160,13.7,160,16.1,160,18.6z"/>
		<path fill="#FFFFFF" stroke="#FFFFFF" stroke-width="3.600000e-02" stroke-miterlimit="10" d="M16.5,60.1c-3,0.9-5.4,2.8-6.9,6.1
			C8,69.4,6.3,74.8,7.1,79.4c0.8,4.5,5.4,9.2,7.1,13.5c1.4,4,3,6,1.5,10.6c-1.7,4.5-5.4,10-11.2,16.6H0c3.4-4.8,5.6-8.7,6.7-12.5
			c1-3.8,0.8-5.8,0-9.6c-1-3.9-3.8-8.9-4.9-12.8c-1.2-4-1.9-7.7-1.6-10.6c0.3-3,1.3-5.3,3.1-7.5c1.6-2.4,3.8-4.7,6.7-6.9
			C12.1,60.1,14.3,60.1,16.5,60.1z"/>
		<path fill="#FFFFFF" stroke="#FFFFFF" stroke-width="3.600000e-02" stroke-miterlimit="10" d="M16.5,180c-3-0.9-5.4-2.9-6.9-6.1
			c-1.6-3.3-3.3-8.9-2.5-13.3c0.8-4.7,5.4-9.4,7.1-13.5c1.4-4.2,3-6.1,1.5-10.6c-1.7-4.7-5.4-9.9-11.2-16.5H0
			c3.4,4.7,5.6,8.6,6.7,12.5c1,3.7,0.8,5.7,0,9.6c-1,3.8-3.8,8.7-4.9,12.8c-1.2,3.9-1.9,7.6-1.6,10.6c0.3,2.8,1.3,5.1,3.1,7.5
			c1.6,2.4,3.8,4.7,6.7,6.9C12.1,180,14.3,180,16.5,180z"/>
		<path fill="#FFFFFF" stroke="#FFFFFF" stroke-width="3.600000e-02" stroke-miterlimit="10" d="M16.5,300c-3-1-5.4-2.8-6.9-6.1
			c-1.6-3.3-3.3-8.9-2.5-13.3c0.8-4.7,5.4-9.4,7.1-13.5c1.4-4.2,3-6.1,1.5-10.6c-1.7-4.6-5.4-10-11.2-16.6H0
			c3.4,4.7,5.6,8.6,6.7,12.5c1,3.7,0.8,5.7,0,9.6c-1,3.8-3.8,8.7-4.9,12.8c-1.2,3.9-1.9,7.6-1.6,10.6c0.3,2.8,1.3,5.1,3.1,7.5
			c1.6,2.4,3.8,4.7,6.7,6.9C12.1,300,14.3,300,16.5,300z"/>
		<path fill="#FFFFFF" stroke="#FFFFFF" stroke-width="3.600000e-02" stroke-miterlimit="10" d="M16.5,180c-3,0.9-5.4,2.8-6.9,6.1
			c-1.6,3.2-3.3,8.7-2.5,13.3s5.4,9.2,7.1,13.5c1.4,4,3,6,1.5,10.6c-1.7,4.6-5.4,9.9-11.2,16.5H0c3.4-4.7,5.6-8.8,6.7-12.5
			c1-3.7,0.8-6,0-9.6c-1-3.8-3.8-9-4.9-12.9c-1.2-4-1.9-7.7-1.6-10.6c0.3-3,1.3-5.3,3.1-7.5c1.6-2.4,3.8-4.7,6.7-6.9
			C12.1,180,14.3,180,16.5,180z"/>
		<path fill="#FFFFFF" stroke="#FFFFFF" stroke-width="3.600000e-02" stroke-miterlimit="10" d="M16.5,300c-3,0.9-5.4,2.8-6.9,6.1
			c-1.6,3.2-3.3,8.7-2.5,13.3s5.4,9.2,7.1,13.5c1.4,4,3,6,1.5,10.6c-1.7,4.5-5.4,10-11.2,16.6H0c3.4-4.8,5.6-8.7,6.7-12.5
			c1-3.8,0.8-5.8,0-9.6c-1-4-3.8-8.9-4.9-12.9c-1.2-3.9-1.9-7.7-1.6-10.6c0.3-3.1,1.3-5.2,3.1-7.6c1.6-2.6,3.8-4.7,6.7-7
			C12.1,300,14.3,300,16.5,300z"/>
		<path fill="#FFFFFF" stroke="#FFFFFF" stroke-width="3.600000e-02" stroke-miterlimit="10" d="M16.5,420c-3-0.9-5.4-2.9-6.9-6.1
			c-1.6-3.3-3.3-8.9-2.5-13.3c0.8-4.7,5.4-9.4,7.1-13.5c1.4-4.2,3-6.1,1.5-10.6c-1.7-4.7-5.4-9.9-11.2-16.5H0
			c3.4,4.5,5.6,8.7,6.7,12.4c1,3.7,0.8,5.7,0,9.6c-1,3.8-3.8,8.7-4.9,12.8c-1.2,3.9-1.9,7.6-1.6,10.6c0.3,2.9,1.3,5.2,3.1,7.6
			c1.6,2.5,3.8,4.6,6.7,6.9C12.1,420,14.3,420,16.5,420z"/>
		<path fill="#FFFFFF" stroke="#FFFFFF" stroke-width="3.600000e-02" stroke-miterlimit="10" d="M266.7,18.6
			c0.8-3.4,2.5-6.1,5.4-7.8c2.8-1.8,7.8-3.7,11.8-2.8c4,0.9,8.2,6.1,12,8c3.6,1.6,5.3,3.4,9.4,1.6c4.1-1.9,8.8-6.1,14.7-12.6V0
			c-4.2,3.8-7.7,6.3-11.1,7.6c-3.4,1.1-5.2,0.9-8.5,0c-3.4-1.2-7.9-4.2-11.4-5.6c-3.6-1.3-6.8-2.2-9.4-1.8c-2.7,0.3-4.7,1.5-6.7,3.5
			c-2.1,1.8-4.2,4.3-6.2,7.6C266.7,13.7,266.7,16.1,266.7,18.6z"/>
		<path fill="#FFFFFF" stroke="#FFFFFF" stroke-width="3.600000e-02" stroke-miterlimit="10" d="M373.3,18.6
			c-0.8-3.4-2.6-6.1-5.4-7.8c-3-1.8-7.8-3.7-11.8-2.8c-4.2,0.9-8.3,6.1-12,8c-3.7,1.6-5.4,3.4-9.4,1.6c-4.1-1.9-8.9-6.1-14.7-12.6V0
			c4.2,3.8,7.7,6.3,11.1,7.6c3.3,1.1,5.1,0.9,8.5,0c3.3-1.2,7.8-4.2,11.4-5.6c3.4-1.3,6.7-2.2,9.4-1.8c2.5,0.3,4.5,1.5,6.7,3.5
			c2.1,1.8,4.2,4.3,6.2,7.6C373.3,13.7,373.3,16.1,373.3,18.6z"/>
		<path fill="#FFFFFF" stroke="#FFFFFF" stroke-width="3.600000e-02" stroke-miterlimit="10" d="M480,18.6c-0.8-3.4-2.6-6.1-5.4-7.8
			c-2.9-1.8-7.9-3.7-11.8-2.8c-4.2,0.9-8.3,6.1-12,8c-3.7,1.6-5.4,3.4-9.4,1.6c-4.1-1.9-8.9-6.1-14.7-12.6V0
			c4.2,3.8,7.7,6.3,11.1,7.6c3.3,1.1,5.1,0.9,8.5,0c3.3-1.2,7.8-4.2,11.4-5.6c3.4-1.3,6.7-2.2,9.4-1.8c2.6,0.3,4.6,1.5,6.7,3.5
			c2.2,1.8,4.1,4.3,6.2,7.6C480,13.7,480,16.1,480,18.6z"/>
		<path fill="#FFFFFF" stroke="#FFFFFF" stroke-width="3.600000e-02" stroke-miterlimit="10" d="M373.3,18.6
			c0.8-3.4,2.5-6.1,5.4-7.8c2.8-1.8,7.8-3.7,11.8-2.8c4,0.9,8.2,6.1,12,8c3.6,1.6,5.3,3.4,9.4,1.6c4.1-1.9,8.8-6.1,14.7-12.6V0
			c-4.2,3.8-7.9,6.3-11.1,7.6c-3.3,1.1-5.3,0.9-8.5,0c-3.4-1.2-8-4.2-11.5-5.6c-3.5-1.3-6.8-2.2-9.4-1.8c-2.8,0.3-4.6,1.5-6.7,3.5
			c-2.3,1.8-4.2,4.3-6.2,7.6C373.3,13.7,373.3,16.1,373.3,18.6z"/>
		<path fill="#FFFFFF" stroke="#FFFFFF" stroke-width="3.600000e-02" stroke-miterlimit="10" d="M480,18.6c0.8-3.4,2.4-6.1,5.4-7.8
			c2.8-1.8,7.8-3.7,11.8-2.8c4,0.9,8.2,6.1,12,8c3.6,1.6,5.3,3.4,9.4,1.6c4-1.9,8.9-6.1,14.7-12.6V0c-4.2,3.8-7.7,6.3-11.1,7.6
			c-3.4,1.1-5.2,0.9-8.5,0c-3.4-1.2-7.9-4.2-11.4-5.6c-3.6-1.3-6.8-2.2-9.4-1.8c-2.7,0.3-4.7,1.5-6.7,3.5c-2.1,1.8-4.2,4.3-6.1,7.6
			C480,13.7,480,16.1,480,18.6z"/>
		<path fill="#FFFFFF" stroke="#FFFFFF" stroke-width="3.600000e-02" stroke-miterlimit="10" d="M586.6,18.6
			c-0.8-3.4-2.6-6.1-5.4-7.8c-2.9-1.8-7.9-3.7-11.8-2.8c-4.2,0.9-8.3,6.1-12,8c-3.7,1.6-5.4,3.4-9.4,1.6c-4.2-1.9-8.8-6.1-14.7-12.6
			V0c4.1,3.8,7.8,6.3,11.1,7.6c3.1,1.1,5.2,0.9,8.5,0c3.3-1.2,7.9-4.2,11.5-5.6c3.4-1.3,6.7-2.2,9.4-1.8c2.5,0.3,4.5,1.5,6.7,3.5
			c2.1,1.8,4.2,4.3,6.2,7.6C586.6,13.7,586.6,16.1,586.6,18.6z"/>
		<path fill="#FFFFFF" stroke="#FFFFFF" stroke-width="3.600000e-02" stroke-miterlimit="10" d="M16.5,420c-3.1,1.5-5.4,3.5-6.9,6.1
			c-1.5,2.6-2.9,6.2-2.1,9.6c0.7,3.1,4.2,6.7,5.8,9.8c1.5,3.1,2.5,6.3,2.9,9.2c0.3,3-0.1,5.6-1.1,8.4L0,480
			c3.4-4.8,5.6-8.7,6.7-12.5c1-3.8,0.8-5.8,0-9.6c-1-3.9-3.8-8.9-4.9-12.8c-1.2-4-1.9-7.7-1.6-10.6c0.3-3,1.3-5.3,3.1-7.5
			c1.6-2.4,3.8-4.7,6.7-7C12.1,420,14.3,420,16.5,420z"/>
		<path fill="#FFFFFF" stroke="#FFFFFF" stroke-width="3.600000e-02" stroke-miterlimit="10" d="M53.3,461.5
			c-1.3,3.5-3.1,5.9-5.4,7.8c-2.4,1.7-5.7,3-8.5,2.5c-2.9-0.8-6-4.9-8.7-6.6c-3-1.8-5.5-2.8-8.2-3.2c-2.7-0.3-5,0-7.4,1.2L0,480
			c4.2-3.8,7.7-6.3,11.1-7.5c3.3-1.3,5.1-1.1,8.5,0c3.3,0.9,7.8,4.1,11.4,5.5c3.4,1.2,6.7,2.1,9.4,1.8c2.6-0.5,4.6-1.6,6.7-3.5
			c2.1-1.9,4.2-4.4,6.1-7.5C53.3,466.4,53.3,463.9,53.3,461.5z"/>
		<path fill="#FFFFFF" stroke="#FFFFFF" stroke-width="3.600000e-02" stroke-miterlimit="10" d="M586.6,461.4
			c1.2,3.5,3.2,5.9,5.4,7.8c2.2,1.7,5.6,3,8.5,2.5c2.7-0.8,5.9-4.9,8.7-6.6c2.8-1.8,5.5-2.8,8.2-3.2c2.7-0.3,5,0,7.4,1.2L640,480
			c-4.2-3.8-7.7-6.3-11.1-7.5c-3.4-1.3-5.2-1.1-8.5,0c-3.4,0.9-7.9,4.1-11.4,5.5c-3.6,1.2-6.8,2.1-9.4,1.8c-2.7-0.5-4.7-1.6-6.7-3.5
			c-2.3-1.9-4.2-4.3-6.2-7.6C586.6,466.3,586.6,463.9,586.6,461.4z"/>
		<path fill="#FFFFFF" stroke="#FFFFFF" stroke-width="3.600000e-02" stroke-miterlimit="10" d="M533.3,480
			c4.2-3.8,7.7-6.3,11.1-7.5c3.3-1.3,5.1-1.1,8.5,0c3.3,0.9,7.8,4.1,11.4,5.5c3.4,1.2,6.7,2.1,9.4,1.8c2.6-0.5,4.6-1.6,6.7-3.5
			c2.1-1.9,4.2-4.3,6.1-7.6"/>
		<path fill="#FFFFFF" stroke="#FFFFFF" stroke-width="3.600000e-02" stroke-miterlimit="10" d="M623.5,420c3.1,1.5,5.3,3.5,6.9,6.1
			c1.5,2.6,2.7,6.2,2.2,9.6c-0.7,3.1-4.3,6.7-5.8,9.8c-1.6,3.1-2.6,6.3-2.9,9.2c-0.3,3,0,5.6,1.1,8.3L640,480
			c-3.4-4.8-5.6-8.7-6.7-12.5c-1.1-3.8-0.9-5.8,0-9.6c0.8-3.9,3.6-8.9,4.9-12.8c1-4,1.8-7.7,1.6-10.6c-0.4-3-1.5-5.3-3.1-7.5
			c-1.7-2.4-3.9-4.7-6.7-7C627.9,420,625.7,420,623.5,420z"/>
		<path fill="#FFFFFF" stroke="#FFFFFF" stroke-width="3.600000e-02" stroke-miterlimit="10" d="M586.6,461.4
			c-0.9,3.4-2.5,6-5.4,7.8c-2.9,1.7-7.9,3.6-11.8,2.8c-4.2-1-8.3-6.3-12-8c-3.7-1.7-5.4-3.5-9.4-1.6c-4.1,1.9-8.9,6-14.7,12.6v4.9
			c4.2-3.8,7.7-6.3,11.1-7.5c3.3-1.3,5.1-1.1,8.5,0c3.3,0.9,7.8,4.1,11.4,5.5c3.4,1.2,6.7,2.1,9.4,1.8c2.5-0.5,4.5-1.6,6.7-3.5
			c2.1-1.9,4.2-4.3,6.2-7.6C586.6,466.3,586.6,463.9,586.6,461.4z"/>
		<path fill="#FFFFFF" stroke="#FFFFFF" stroke-width="3.600000e-02" stroke-miterlimit="10" d="M480,461.4c0.8,3.4,2.5,6,5.4,7.8
			c2.8,1.7,7.8,3.6,11.8,2.8c4-1,8.2-6.3,12-8c3.6-1.7,5.3-3.5,9.4-1.6c4.1,1.9,8.8,6,14.7,12.6v4.9c-4.2-3.8-7.9-6.3-11.1-7.5
			c-3.3-1.3-5.3-1.1-8.5,0c-3.4,0.9-8,4.1-11.5,5.5c-3.6,1.2-6.8,2.1-9.4,1.8c-2.7-0.5-4.7-1.6-6.7-3.5c-2.1-1.9-4.2-4.3-6.2-7.6
			C480,466.3,480,463.9,480,461.4z"/>
		<path fill="#FFFFFF" stroke="#FFFFFF" stroke-width="3.600000e-02" stroke-miterlimit="10" d="M373.3,461.4c0.8,3.4,2.5,6,5.4,7.8
			c2.9,1.7,7.7,3.6,11.8,2.8c4-1,8.2-6.3,12-8c3.6-1.7,5.3-3.5,9.4-1.6c4,1.9,8.9,6,14.7,12.6v4.9c-4.2-3.8-7.7-6.3-11.1-7.5
			c-3.4-1.3-5.2-1.1-8.5,0c-3.4,0.9-7.9,4.1-11.4,5.5c-3.6,1.2-6.8,2.1-9.4,1.8c-2.7-0.5-4.7-1.6-6.7-3.5c-2.1-1.9-4.2-4.3-6.2-7.6
			C373.3,466.3,373.3,463.9,373.3,461.4z"/>
		<path fill="#FFFFFF" stroke="#FFFFFF" stroke-width="3.600000e-02" stroke-miterlimit="10" d="M480,461.4c-0.8,3.4-2.6,6-5.4,7.8
			c-2.9,1.7-7.9,3.6-11.8,2.8c-4.2-1-8.3-6.3-12-8c-3.6-1.7-5.5-3.5-9.4-1.6c-4.1,1.9-8.9,6-14.7,12.6v4.9c4.2-3.8,7.7-6.3,11.1-7.5
			c3.3-1.3,5.1-1.1,8.5,0c3.3,0.9,7.8,4.1,11.4,5.5c3.4,1.2,6.7,2.1,9.4,1.8c2.5-0.5,4.5-1.6,6.7-3.5c2.1-1.9,4.2-4.3,6.2-7.6
			C480,466.3,480,463.9,480,461.4z"/>
		<path fill="#FFFFFF" stroke="#FFFFFF" stroke-width="3.600000e-02" stroke-miterlimit="10" d="M623.5,420c3-0.9,5.3-2.9,6.9-6.1
			c1.5-3.3,3.3-8.9,2.6-13.3c-0.9-4.7-5.6-9.4-7.1-13.5c-1.5-4.2-3.1-6.1-1.5-10.6c1.7-4.6,5.4-10,11.2-16.6h4.4
			c-3.4,4.7-5.6,8.6-6.7,12.5c-1.1,3.7-0.9,5.7,0,9.6c0.8,3.8,3.6,8.7,4.9,12.8c1,3.9,1.8,7.6,1.6,10.6c-0.4,2.9-1.5,5.2-3.1,7.6
			c-1.7,2.5-3.9,4.6-6.7,6.9C627.9,420,625.7,420,623.5,420z"/>
		<path fill="#FFFFFF" stroke="#FFFFFF" stroke-width="3.600000e-02" stroke-miterlimit="10" d="M623.5,300c3,0.9,5.3,2.8,6.9,6.1
			c1.5,3.2,3.3,8.7,2.6,13.3c-0.9,4.5-5.6,9.2-7.1,13.5c-1.5,4-3.1,6-1.5,10.6c1.7,4.6,5.4,9.9,11.2,16.5h4.4
			c-3.4-4.7-5.6-8.8-6.7-12.5c-1.1-3.7-0.9-6,0-9.6c0.8-3.8,3.6-9,4.9-12.9c1-4,1.8-7.7,1.6-10.6c-0.4-3-1.5-5.3-3.1-7.5
			c-1.7-2.4-3.9-4.7-6.7-6.9C627.9,300,625.7,300,623.5,300z"/>
		<path fill="#FFFFFF" stroke="#FFFFFF" stroke-width="3.600000e-02" stroke-miterlimit="10" d="M623.5,180c3,0.9,5.3,2.8,6.9,6.1
			c1.5,3.2,3.3,8.7,2.6,13.3c-0.9,4.5-5.6,9.2-7.1,13.5c-1.5,4-3.1,6-1.5,10.6c1.7,4.6,5.4,9.9,11.2,16.5h4.4
			c-3.4-4.8-5.6-8.7-6.7-12.5c-1.1-3.8-0.9-5.8,0-9.6c0.8-3.9,3.6-8.9,4.9-12.8c1-4,1.8-7.7,1.6-10.6c-0.4-3-1.5-5.3-3.1-7.5
			c-1.7-2.4-3.9-4.7-6.7-6.9C627.9,180,625.7,180,623.5,180z"/>
		<path fill="#FFFFFF" stroke="#FFFFFF" stroke-width="3.600000e-02" stroke-miterlimit="10" d="M623.5,300c3-0.9,5.3-2.9,6.9-6.1
			c1.5-3.3,3.3-8.8,2.6-13.2c-0.9-4.7-5.6-9.4-7.1-13.5c-1.5-4.2-3.1-6.1-1.5-10.6c1.7-4.6,5.4-10,11.2-16.6h4.4
			c-3.4,4.7-5.6,8.6-6.7,12.5c-1.1,3.7-0.9,5.7,0,9.6c0.8,3.8,3.6,8.7,4.9,12.8c1,3.9,1.8,7.6,1.6,10.6c-0.4,2.8-1.5,5.1-3.1,7.5
			c-1.7,2.4-3.9,4.7-6.7,7C627.9,300,625.7,300,623.5,300z"/>
		<path fill="#FFFFFF" stroke="#FFFFFF" stroke-width="3.600000e-02" stroke-miterlimit="10" d="M623.5,180c3-0.9,5.3-2.9,6.9-6.1
			c1.5-3.3,3.3-8.9,2.6-13.3c-0.9-4.7-5.6-9.4-7.1-13.5c-1.5-4.2-3.1-6.1-1.5-10.6c1.7-4.7,5.4-9.9,11.2-16.5h4.4
			c-3.4,4.6-5.6,8.8-6.7,12.5c-1.1,3.5-0.9,5.8,0,9.6c0.8,3.7,3.6,8.8,4.9,12.9c1,3.9,1.8,7.6,1.6,10.6c-0.4,2.8-1.5,5.1-3.1,7.5
			c-1.7,2.4-3.9,4.7-6.7,6.9C627.9,180,625.7,180,623.5,180z"/>
		<path fill="#FFFFFF" stroke="#FFFFFF" stroke-width="3.600000e-02" stroke-miterlimit="10" d="M623.5,60c3,0.9,5.3,2.8,6.9,6.1
			c1.5,3.2,3.3,8.6,2.6,13.2c-0.9,4.5-5.6,9.2-7.1,13.5c-1.5,4-3.1,6-1.5,10.6c1.7,4.5,5.4,10,11.2,16.6h4.4
			c-3.4-4.8-5.6-8.7-6.7-12.5c-1.1-3.8-0.9-5.8,0-9.6c0.8-3.9,3.6-8.9,4.9-12.8c1-4,1.8-7.7,1.6-10.6c-0.4-3-1.5-5.3-3.1-7.5
			c-1.7-2.4-3.9-4.7-6.7-6.9C627.9,60,625.7,60,623.5,60z"/>
		<path fill="#FFFFFF" stroke="#FFFFFF" stroke-width="3.600000e-02" stroke-miterlimit="10" d="M373.3,461.4
			c-0.8,3.4-2.6,6-5.4,7.8c-2.9,1.7-7.9,3.6-11.8,2.8c-4.2-1-8.3-6.3-12-8c-3.7-1.7-5.4-3.5-9.4-1.6c-4.2,1.9-8.8,6-14.7,12.6v4.9
			c4.1-3.8,7.8-6.3,11.1-7.5c3.1-1.3,5.2-1.1,8.5,0c3.3,0.9,7.9,4.1,11.5,5.5c3.4,1.2,6.7,2.1,9.4,1.8c2.5-0.5,4.5-1.6,6.7-3.5
			c2.1-1.9,4.2-4.3,6.2-7.6C373.3,466.3,373.3,463.9,373.3,461.4z"/>
		<path fill="#FFFFFF" stroke="#FFFFFF" stroke-width="3.600000e-02" stroke-miterlimit="10" d="M266.7,461.4c0.8,3.4,2.5,6,5.4,7.8
			c2.8,1.7,7.8,3.6,11.8,2.8c4-1,8.2-6.3,12-8c3.6-1.7,5.3-3.5,9.4-1.6c4,1.9,8.9,6,14.7,12.6v4.9c-4.2-3.8-7.7-6.3-11.1-7.5
			c-3.4-1.3-5.2-1.1-8.5,0c-3.4,0.9-7.9,4.1-11.4,5.5c-3.6,1.2-6.8,2.1-9.4,1.8c-2.7-0.5-4.7-1.6-6.7-3.5c-2.3-1.9-4.2-4.3-6.2-7.6
			C266.7,466.3,266.7,463.9,266.7,461.4z"/>
		<path fill="#FFFFFF" stroke="#FFFFFF" stroke-width="3.600000e-02" stroke-miterlimit="10" d="M160,461.4c0.8,3.4,2.5,6,5.4,7.8
			c2.8,1.7,7.8,3.6,11.8,2.8c4-1,8.2-6.3,12-8c3.6-1.7,5.3-3.5,9.4-1.6c4.1,1.9,8.8,6,14.7,12.6v4.9c-4.2-3.8-7.9-6.3-11.1-7.5
			c-3.3-1.3-5.3-1.1-8.5,0c-3.4,0.9-8,4.1-11.5,5.5c-3.6,1.2-6.8,2.1-9.4,1.8c-2.7-0.5-4.7-1.6-6.7-3.5c-2.1-1.9-4.2-4.3-6.2-7.6
			C160,466.3,160,463.9,160,461.4z"/>
		<path fill="#FFFFFF" stroke="#FFFFFF" stroke-width="3.600000e-02" stroke-miterlimit="10" d="M266.7,461.4
			c-0.9,3.4-2.5,6-5.4,7.8c-2.9,1.7-7.9,3.6-11.8,2.8c-4.2-1-8.3-6.3-12-8c-3.7-1.7-5.4-3.5-9.4-1.6c-4.1,1.9-8.9,6-14.7,12.6v4.9
			c4.2-3.8,7.7-6.3,11.1-7.5c3.3-1.3,5.1-1.1,8.5,0c3.3,0.9,7.8,4.1,11.4,5.5c3.4,1.2,6.7,2.1,9.4,1.8c2.6-0.5,4.6-1.6,6.7-3.5
			c2.1-1.9,4.2-4.3,6.1-7.6C266.7,466.3,266.7,463.9,266.7,461.4z"/>
		<path fill="#FFFFFF" stroke="#FFFFFF" stroke-width="3.600000e-02" stroke-miterlimit="10" d="M160,461.4c-0.8,3.4-2.6,6-5.4,7.8
			c-3,1.7-7.8,3.6-11.8,2.8c-4.2-1-8.3-6.3-12-8c-3.7-1.7-5.4-3.5-9.4-1.6c-4.1,1.9-8.9,6-14.7,12.6v4.9c4.2-3.8,7.7-6.3,11.1-7.5
			c3.3-1.3,5.1-1.1,8.5,0c3.3,0.9,7.8,4.1,11.4,5.5c3.4,1.2,6.7,2.1,9.4,1.8c2.5-0.5,4.5-1.6,6.7-3.5c2.1-1.9,4.2-4.3,6.2-7.6
			C160,466.3,160,463.9,160,461.4z"/>
		<path fill="#FFFFFF" stroke="#FFFFFF" stroke-width="3.600000e-02" stroke-miterlimit="10" d="M53.4,461.4c0.8,3.4,2.5,6,5.4,7.8
			c2.8,1.7,7.8,3.6,11.8,2.8c4-1,8.2-6.3,12-8c3.4-1.7,5.4-3.5,9.4-1.6c4,1.9,8.9,6,14.7,12.6v4.9c-4.2-3.8-7.7-6.3-11.1-7.5
			c-3.4-1.3-5.2-1.1-8.5,0c-3.4,0.9-7.9,4.1-11.4,5.5c-3.6,1.2-6.8,2.1-9.4,1.8c-2.7-0.5-4.7-1.6-6.7-3.5c-2.1-1.9-4.2-4.3-6.2-7.6
			C53.4,466.3,53.4,463.9,53.4,461.4z"/>
		<path fill="#FFFFFF" stroke="#FFFFFF" stroke-width="3.600000e-02" stroke-miterlimit="10" d="M623.5,60c3.1-1.5,5.3-3.5,6.9-6.1
			c1.5-2.7,2.7-6.4,2.2-9.6c-0.7-3.2-4.3-6.8-5.8-9.8c-1.6-3.2-2.6-6.2-2.9-9.2c-0.3-3,0-5.8,1.1-8.4L640,0
			c-3.4,4.7-5.6,8.6-6.7,12.5c-1.1,3.7-0.9,5.7,0,9.6c0.8,3.8,3.6,8.7,4.9,12.8c1,3.9,1.8,7.6,1.6,10.6c-0.4,2.9-1.5,5.2-3.1,7.6
			c-1.7,2.4-3.9,4.7-6.7,6.9C627.9,60,625.7,60,623.5,60z"/>
		<path fill="#FFFFFF" stroke="#FFFFFF" stroke-width="3.600000e-02" stroke-miterlimit="10" d="M586.6,18.5
			c1.2-3.5,3.2-6.1,5.4-7.8c2.2-1.7,5.6-3.2,8.5-2.4c2.7,0.8,5.9,4.7,8.7,6.5c2.8,1.6,5.5,2.8,8.2,3.3c2.7,0.3,5-0.1,7.4-1.3L640,0
			c-4.2,3.8-7.7,6.3-11.1,7.6c-3.4,1.1-5.2,0.9-8.5,0C617,6.4,612.5,3.3,609,2c-3.6-1.3-6.8-2.2-9.4-1.8c-2.7,0.3-4.7,1.5-6.7,3.5
			c-2.3,1.8-4.2,4.3-6.2,7.6C586.6,13.6,586.6,16.1,586.6,18.5z"/>
	</g>
</g>
</svg>
